REM DIRINDEX 1\2,1\3,1\4,1\6,1\5\7,1\5\8
REM DIRNAME cjc114,folder01,folder02,folder03,folder04,folder05,folder06,folder07
TITLE ""
FILE "DB4500_5th_2A_27.mp3" MP3
  TRACK 01 AUDIO
    TITLE "6:cjc114_0827"
    INDEX 01 00:00:00
  TRACK 02 AUDIO
    TITLE "0:"
    INDEX 01 00:01:32
  TRACK 03 AUDIO
    TITLE "2:cjc114_0828"
    INDEX 01 00:02:10
  TRACK 04 AUDIO
    TITLE "0:"
    INDEX 01 00:03:19
  TRACK 05 AUDIO
    TITLE "3:cjc114_0829"
    INDEX 01 00:03:49
  TRACK 06 AUDIO
    TITLE "0:"
    INDEX 01 00:04:50
  TRACK 07 AUDIO
    TITLE "4:cjc114_0830"
    INDEX 01 00:05:05
  TRACK 08 AUDIO
    TITLE "0:"
    INDEX 01 00:07:17
  TRACK 09 AUDIO
    TITLE "2:cjc114_0831"
    INDEX 01 00:07:70
  TRACK 10 AUDIO
    TITLE "0:"
    INDEX 01 00:08:73
  TRACK 11 AUDIO
    TITLE "3:cjc114_0832"
    INDEX 01 00:09:26
  TRACK 12 AUDIO
    TITLE "0:"
    INDEX 01 00:10:31
  TRACK 13 AUDIO
    TITLE "4:cjc114_0833"
    INDEX 01 00:10:63
  TRACK 14 AUDIO
    TITLE "0:"
    INDEX 01 00:13:69
  TRACK 15 AUDIO
    TITLE "2:cjc114_0834"
    INDEX 01 00:14:47
  TRACK 16 AUDIO
    TITLE "0:"
    INDEX 01 00:15:42
  TRACK 17 AUDIO
    TITLE "3:cjc114_0835"
    INDEX 01 00:15:70
  TRACK 18 AUDIO
    TITLE "0:"
    INDEX 01 00:17:10
  TRACK 19 AUDIO
    TITLE "4:cjc114_0836"
    INDEX 01 00:17:35
  TRACK 20 AUDIO
    TITLE "0:"
    INDEX 01 00:19:62
  TRACK 21 AUDIO
    TITLE "4:cjc114_0837"
    INDEX 01 00:20:18
  TRACK 22 AUDIO
    TITLE "0:"
    INDEX 01 00:22:23
  TRACK 23 AUDIO
    TITLE "2:cjc114_0838"
    INDEX 01 00:23:03
  TRACK 24 AUDIO
    TITLE "0:"
    INDEX 01 00:24:06
  TRACK 25 AUDIO
    TITLE "3:cjc114_0839"
    INDEX 01 00:24:33
  TRACK 26 AUDIO
    TITLE "0:"
    INDEX 01 00:25:33
  TRACK 27 AUDIO
    TITLE "4:cjc114_0840"
    INDEX 01 00:25:58
  TRACK 28 AUDIO
    TITLE "0:"
    INDEX 01 00:28:51
  TRACK 29 AUDIO
    TITLE "2:cjc114_0841"
    INDEX 01 00:29:33
  TRACK 30 AUDIO
    TITLE "0:"
    INDEX 01 00:30:48
  TRACK 31 AUDIO
    TITLE "3:cjc114_0842"
    INDEX 01 00:31:04
  TRACK 32 AUDIO
    TITLE "0:"
    INDEX 01 00:32:52
  TRACK 33 AUDIO
    TITLE "4:cjc114_0843"
    INDEX 01 00:33:07
  TRACK 34 AUDIO
    TITLE "0:"
    INDEX 01 00:36:68
  TRACK 35 AUDIO
    TITLE "2:cjc114_0844"
    INDEX 01 00:37:46
  TRACK 36 AUDIO
    TITLE "0:"
    INDEX 01 00:38:61
  TRACK 37 AUDIO
    TITLE "3:cjc114_0845"
    INDEX 01 00:39:13
  TRACK 38 AUDIO
    TITLE "0:"
    INDEX 01 00:40:36
  TRACK 39 AUDIO
    TITLE "4:cjc114_0846"
    INDEX 01 00:40:70
  TRACK 40 AUDIO
    TITLE "0:"
    INDEX 01 00:44:52
  TRACK 41 AUDIO
    TITLE "2:cjc114_0847"
    INDEX 01 00:45:32
  TRACK 42 AUDIO
    TITLE "0:"
    INDEX 01 00:46:43
  TRACK 43 AUDIO
    TITLE "3:cjc114_0848"
    INDEX 01 00:46:72
  TRACK 44 AUDIO
    TITLE "0:"
    INDEX 01 00:48:46
  TRACK 45 AUDIO
    TITLE "4:cjc114_0849"
    INDEX 01 00:49:02
  TRACK 46 AUDIO
    TITLE "0:"
    INDEX 01 00:52:43
  TRACK 47 AUDIO
    TITLE "4:cjc114_0850"
    INDEX 01 00:53:27
  TRACK 48 AUDIO
    TITLE "0:"
    INDEX 01 00:57:60
  TRACK 49 AUDIO
    TITLE "2:cjc114_0851"
    INDEX 01 00:58:38
  TRACK 50 AUDIO
    TITLE "0:"
    INDEX 01 00:59:43
  TRACK 51 AUDIO
    TITLE "3:cjc114_0852"
    INDEX 01 00:59:71
  TRACK 52 AUDIO
    TITLE "0:"
    INDEX 01 01:01:33
  TRACK 53 AUDIO
    TITLE "4:cjc114_0853"
    INDEX 01 01:01:60
  TRACK 54 AUDIO
    TITLE "0:"
    INDEX 01 01:04:58
  TRACK 55 AUDIO
    TITLE "2:cjc114_0854"
    INDEX 01 01:05:38
  TRACK 56 AUDIO
    TITLE "0:"
    INDEX 01 01:06:55
  TRACK 57 AUDIO
    TITLE "3:cjc114_0855"
    INDEX 01 01:07:10
  TRACK 58 AUDIO
    TITLE "0:"
    INDEX 01 01:08:25
  TRACK 59 AUDIO
    TITLE "4:cjc114_0856"
    INDEX 01 01:08:54
  TRACK 60 AUDIO
    TITLE "0:"
    INDEX 01 01:11:68
